<?xml version="1.0" encoding="utf-8"?>
<!-- Generator: Adobe Illustrator 12.0.0, SVG Export Plug-In . SVG Version: 6.00 Build 51448)  -->
<!DOCTYPE svg PUBLIC "-//W3C//DTD SVG 1.1//EN" "http://www.w3.org/Graphics/SVG/1.1/DTD/svg11.dtd" [
	<!ENTITY ns_svg "http://www.w3.org/2000/svg">
	<!ENTITY ns_xlink "http://www.w3.org/1999/xlink">
]>
<svg  version="1.1" id="Layer_1" xmlns="&ns_svg;" xmlns:xlink="&ns_xlink;" width="127.559" height="88.489"
	 viewBox="0 0 127.559 88.489" overflow="visible" enable-background="new 0 0 127.559 88.489" xml:space="preserve">
<g>
	<ellipse fill="#FFFFFF" cx="63.779" cy="36.796" rx="63.779" ry="36.8"/>
	<g>
		<path fill="#FFFFFF" stroke="#FFFFFF" stroke-width="2.8346" stroke-linecap="round" stroke-linejoin="round" d="M6.662,85.303
			L5.68,85.426v-6.989l0.982-0.158v3.003h3.388v-2.845l0.978-0.158v7.024l-0.978,0.123v-3.245H6.662V85.303z"/>
		<path fill="#FFFFFF" stroke="#FFFFFF" stroke-width="2.8346" stroke-linecap="round" stroke-linejoin="round" d="M16.191,85.303
			l-0.856,0.162v-0.699h-0.018c-0.243,0.471-0.743,0.699-1.506,0.699c-0.558,0-1.008-0.186-1.359-0.563
			c-0.349-0.377-0.524-0.848-0.524-1.414c0-0.541,0.207-0.98,0.625-1.32c0.385-0.316,0.852-0.473,1.396-0.473
			s0.975,0.166,1.28,0.503v-0.399c0-0.342-0.11-0.574-0.321-0.69c-0.158-0.088-0.452-0.13-0.879-0.13
			c-0.598,0-1.092,0.1-1.477,0.295l0.262-0.994c0.668-0.131,1.127-0.201,1.381-0.201c0.686,0,1.192,0.148,1.516,0.443
			c0.322,0.299,0.48,0.787,0.48,1.459V85.303z M14.063,82.543c-0.321,0-0.588,0.074-0.799,0.223
			c-0.246,0.176-0.369,0.417-0.369,0.723c0,0.714,0.366,1.076,1.1,1.076c0.824,0,1.235-0.362,1.235-1.076
			c0-0.301-0.12-0.537-0.358-0.713C14.655,82.62,14.389,82.543,14.063,82.543z"/>
		<path fill="#FFFFFF" stroke="#FFFFFF" stroke-width="2.8346" stroke-linecap="round" stroke-linejoin="round" d="M15.137,78.24
			h0.515c-0.099,0.77-0.437,1.156-1.002,1.156c-0.135,0-0.352-0.057-0.655-0.187c-0.299-0.123-0.51-0.179-0.64-0.179
			c-0.204,0-0.327,0.144-0.369,0.436h-0.521c0.018-0.287,0.121-0.549,0.297-0.784c0.178-0.259,0.404-0.387,0.657-0.387
			c0.187,0,0.417,0.06,0.698,0.183c0.279,0.134,0.482,0.197,0.613,0.197C14.941,78.676,15.077,78.531,15.137,78.24z"/>
		<path fill="#FFFFFF" stroke="#FFFFFF" stroke-width="2.8346" stroke-linecap="round" stroke-linejoin="round" d="M18.52,84.178
			l-1.977-3.938l0.844-0.162l1.598,3.119l1.479-3.119l0.842,0.162l-3.217,6.711l-0.859-0.242L18.52,84.178z"/>
		<path fill="#FFFFFF" stroke="#FFFFFF" stroke-width="2.8346" stroke-linecap="round" stroke-linejoin="round" d="M25.433,85.303
			l-0.964,0.162V80.24l0.964-0.162v0.754h0.021c0.281-0.5,0.78-0.754,1.504-0.754c0.567,0,1.031,0.134,1.383,0.402
			c0.41,0.312,0.611,0.766,0.611,1.359v3.463l-0.963,0.162v-3.541c0-0.668-0.376-0.998-1.125-0.998c-0.411,0-0.75,0.119-1.002,0.365
			c-0.288,0.281-0.429,0.672-0.429,1.193V85.303z"/>
		<path fill="#FFFFFF" stroke="#FFFFFF" stroke-width="2.8346" stroke-linecap="round" stroke-linejoin="round" d="M32.552,80.078
			c0.763,0,1.413,0.262,1.954,0.781c0.537,0.518,0.806,1.16,0.806,1.912s-0.269,1.393-0.806,1.912
			c-0.541,0.521-1.191,0.781-1.954,0.781c-0.753,0-1.399-0.26-1.941-0.781c-0.542-0.52-0.812-1.16-0.812-1.912
			s0.27-1.395,0.812-1.912C31.152,80.34,31.799,80.078,32.552,80.078z M34.352,82.771c0-0.496-0.176-0.914-0.524-1.27
			c-0.352-0.348-0.773-0.523-1.275-0.523c-0.5,0-0.922,0.176-1.271,0.523c-0.34,0.355-0.516,0.773-0.516,1.27
			c0,0.492,0.176,0.914,0.516,1.27c0.349,0.348,0.771,0.523,1.271,0.523c0.502,0,0.924-0.176,1.275-0.523
			C34.176,83.686,34.352,83.264,34.352,82.771z"/>
		<path fill="#FFFFFF" stroke="#FFFFFF" stroke-width="2.8346" stroke-linecap="round" stroke-linejoin="round" d="M32.137,79.467
			l0.899-1.435H34.4l-1.444,1.435H32.137z"/>
		<path fill="#FFFFFF" stroke="#FFFFFF" stroke-width="2.8346" stroke-linecap="round" stroke-linejoin="round" d="M36.103,78.911
			l0.622-0.759l0.639,0.759l-0.621,0.749L36.103,78.911z M37.223,85.303l-0.967,0.162V80.24l0.967-0.162V85.303z"/>
		<path fill="#FFFFFF" stroke="#FFFFFF" stroke-width="2.8346" stroke-linecap="round" stroke-linejoin="round" d="M43.779,80.236
			v0.844h-1.341v2.693c0,0.32,0.063,0.541,0.186,0.664c0.131,0.117,0.364,0.18,0.711,0.18c0.002,0,0.216-0.018,0.638-0.063
			l-0.168,0.867c-0.257,0.025-0.513,0.043-0.773,0.043c-0.447,0-0.816-0.148-1.115-0.436c-0.299-0.293-0.444-0.664-0.444-1.119
			v-2.83h-0.796l0.344-0.844h0.452v-1.24l0.967-0.236v1.477H43.779z"/>
		<path fill="#FFFFFF" stroke="#FFFFFF" stroke-width="2.8346" stroke-linecap="round" stroke-linejoin="round" d="M45.457,85.303
			l-0.962,0.162v-7.076l0.962-0.163v2.496h0.063c0.12-0.204,0.321-0.362,0.598-0.475c0.261-0.112,0.553-0.169,0.869-0.169
			c0.563,0,1.026,0.134,1.381,0.402c0.404,0.301,0.615,0.73,0.615,1.303v3.52l-0.967,0.162v-3.541c0-0.668-0.374-0.998-1.128-0.998
			c-0.411,0-0.745,0.119-0.999,0.365c-0.286,0.281-0.432,0.672-0.432,1.193V85.303z"/>
		<path fill="#FFFFFF" stroke="#FFFFFF" stroke-width="2.8346" stroke-linecap="round" stroke-linejoin="round" d="M54.686,81.471
			l-3.563,2.271c0.336,0.545,0.804,0.822,1.391,0.822c0.508,0,1.133-0.295,1.881-0.883l0.193,1.01
			c-0.735,0.518-1.408,0.773-2.014,0.773c-0.809,0-1.459-0.268-1.951-0.799c-0.497-0.537-0.743-1.215-0.743-2.035
			c0-0.686,0.254-1.283,0.756-1.793c0.505-0.503,1.095-0.76,1.775-0.76c0.522,0,0.967,0.121,1.333,0.362
			C54.085,80.651,54.396,81,54.686,81.471z M50.843,82.916l2.521-1.607c-0.193-0.218-0.489-0.33-0.884-0.33
			c-0.492,0-0.892,0.162-1.195,0.488c-0.302,0.327-0.457,0.731-0.457,1.206C50.828,82.754,50.833,82.831,50.843,82.916z"/>
		<path fill="#FFFFFF" stroke="#FFFFFF" stroke-width="2.8346" stroke-linecap="round" stroke-linejoin="round" d="M58.146,80.078
			c0.759,0,1.416,0.262,1.954,0.781c0.537,0.518,0.813,1.16,0.813,1.912s-0.276,1.393-0.813,1.912
			c-0.538,0.521-1.195,0.781-1.954,0.781c-0.756,0-1.396-0.26-1.943-0.781c-0.54-0.52-0.813-1.16-0.813-1.912
			s0.273-1.395,0.813-1.912C56.749,80.34,57.39,80.078,58.146,80.078z M59.941,82.771c0-0.496-0.169-0.914-0.522-1.27
			c-0.35-0.348-0.773-0.523-1.273-0.523c-0.497,0-0.922,0.176-1.266,0.523c-0.349,0.355-0.52,0.773-0.52,1.27
			c0,0.492,0.171,0.914,0.52,1.27c0.344,0.348,0.769,0.523,1.266,0.523c0.5,0,0.924-0.176,1.273-0.523
			C59.772,83.686,59.941,83.264,59.941,82.771z"/>
		<path fill="#FFFFFF" stroke="#FFFFFF" stroke-width="2.8346" stroke-linecap="round" stroke-linejoin="round" d="M68.753,80.792
			l-0.585,0.657c-0.417-0.316-0.844-0.471-1.278-0.471c-0.469,0-0.861,0.18-1.172,0.541c-0.303,0.359-0.457,0.781-0.457,1.259
			c0,0.462,0.165,0.876,0.499,1.241c0.334,0.363,0.721,0.545,1.149,0.545c0.422,0,0.837-0.199,1.252-0.598l0.622,0.633
			c-0.563,0.576-1.195,0.865-1.905,0.865c-0.679,0-1.279-0.26-1.799-0.781c-0.521-0.512-0.781-1.135-0.781-1.873
			c0-0.764,0.242-1.403,0.729-1.934c0.487-0.535,1.103-0.799,1.852-0.799C67.577,80.078,68.203,80.317,68.753,80.792z"/>
		<path fill="#FFFFFF" stroke="#FFFFFF" stroke-width="2.8346" stroke-linecap="round" stroke-linejoin="round" d="M73.499,85.303
			l-0.855,0.162v-0.699h-0.021c-0.242,0.471-0.74,0.699-1.504,0.699c-0.563,0-1.012-0.186-1.361-0.563
			c-0.348-0.377-0.517-0.848-0.517-1.414c0-0.541,0.204-0.98,0.62-1.32c0.383-0.316,0.85-0.473,1.395-0.473
			c0.549,0,0.975,0.166,1.279,0.503v-0.399c0-0.342-0.105-0.574-0.318-0.69c-0.162-0.088-0.455-0.13-0.883-0.13
			c-0.594,0-1.09,0.1-1.473,0.295l0.256-0.994c0.668-0.131,1.133-0.201,1.385-0.201c0.686,0,1.191,0.148,1.512,0.443
			c0.328,0.299,0.486,0.787,0.486,1.459V85.303z M71.368,82.543c-0.32,0-0.588,0.074-0.795,0.223
			c-0.25,0.176-0.373,0.417-0.373,0.723c0,0.714,0.365,1.076,1.098,1.076c0.826,0,1.236-0.362,1.236-1.076
			c0-0.301-0.119-0.537-0.357-0.713C71.962,82.62,71.694,82.543,71.368,82.543z"/>
		<path fill="#FFFFFF" stroke="#FFFFFF" stroke-width="2.8346" stroke-linecap="round" stroke-linejoin="round" d="M70.53,79.467
			l0.896-1.435h1.361l-1.438,1.435H70.53z"/>
		<path fill="#FFFFFF" stroke="#FFFFFF" stroke-width="2.8346" stroke-linecap="round" stroke-linejoin="round" d="M78.765,80.792
			l-0.58,0.657c-0.418-0.316-0.847-0.471-1.283-0.471c-0.471,0-0.861,0.18-1.168,0.541c-0.305,0.359-0.459,0.781-0.459,1.259
			c0,0.462,0.164,0.876,0.502,1.241c0.33,0.363,0.717,0.545,1.15,0.545c0.418,0,0.833-0.199,1.248-0.598l0.622,0.633
			c-0.56,0.576-1.2,0.865-1.903,0.865c-0.682,0-1.285-0.26-1.803-0.781c-0.52-0.512-0.781-1.135-0.781-1.873
			c0-0.764,0.244-1.403,0.732-1.934c0.484-0.535,1.104-0.799,1.852-0.799C77.595,80.078,78.217,80.317,78.765,80.792z"/>
		<path fill="#FFFFFF" stroke="#FFFFFF" stroke-width="2.8346" stroke-linecap="round" stroke-linejoin="round" d="M80.515,85.303
			l-0.967,0.162v-7.076l0.967-0.163v2.496h0.061c0.12-0.204,0.324-0.362,0.605-0.475c0.26-0.112,0.547-0.169,0.857-0.169
			c0.573,0,1.03,0.134,1.389,0.402c0.404,0.301,0.608,0.73,0.608,1.303v3.52l-0.967,0.162v-3.541c0-0.668-0.374-0.998-1.122-0.998
			c-0.414,0-0.748,0.119-0.998,0.365c-0.293,0.281-0.434,0.672-0.434,1.193V85.303z"/>
		<path fill="#FFFFFF" stroke="#FFFFFF" stroke-width="2.8346" stroke-linecap="round" stroke-linejoin="round" d="M92.124,80.792
			l-0.583,0.657c-0.422-0.316-0.849-0.471-1.28-0.471c-0.475,0-0.857,0.18-1.17,0.541c-0.307,0.359-0.461,0.781-0.461,1.259
			c0,0.462,0.164,0.876,0.503,1.241c0.329,0.363,0.716,0.545,1.15,0.545c0.417,0,0.831-0.199,1.248-0.598l0.62,0.633
			c-0.563,0.576-1.195,0.865-1.9,0.865c-0.679,0-1.283-0.26-1.809-0.781c-0.516-0.512-0.775-1.135-0.775-1.873
			c0-0.764,0.242-1.403,0.73-1.934c0.484-0.535,1.107-0.799,1.854-0.799C90.951,80.078,91.576,80.317,92.124,80.792z"/>
		<path fill="#FFFFFF" stroke="#FFFFFF" stroke-width="2.8346" stroke-linecap="round" stroke-linejoin="round" d="M96.428,80.24
			l0.962-0.162v5.225l-0.962,0.162v-0.746H96.41c-0.299,0.492-0.809,0.746-1.519,0.746c-0.563,0-1.022-0.133-1.374-0.404
			c-0.412-0.299-0.61-0.73-0.61-1.298V80.24l0.965-0.162v3.544c0,0.661,0.371,0.995,1.122,0.995c0.417,0,0.748-0.127,1.005-0.373
			c0.288-0.271,0.429-0.668,0.429-1.18V80.24z"/>
		<path fill="#FFFFFF" stroke="#FFFFFF" stroke-width="2.8346" stroke-linecap="round" stroke-linejoin="round" d="M95.991,78.848
			c-0.186,0.123-0.281,0.229-0.281,0.31v0.183l-0.588,0.127v-0.468c0-0.144,0.053-0.257,0.153-0.352
			c0.101-0.07,0.198-0.134,0.302-0.211c0.133-0.095,0.2-0.196,0.2-0.319c0-0.088-0.035-0.162-0.105-0.229
			c-0.07-0.057-0.158-0.092-0.256-0.092c-0.136,0-0.241,0.031-0.313,0.092c-0.078,0.063-0.176,0.186-0.292,0.39l-0.55-0.241
			c0.276-0.525,0.646-0.785,1.105-0.785c0.283,0,0.534,0.084,0.74,0.26c0.206,0.169,0.312,0.385,0.312,0.641
			C96.418,78.43,96.277,78.662,95.991,78.848z"/>
		<path fill="#FFFFFF" stroke="#FFFFFF" stroke-width="2.8346" stroke-linecap="round" stroke-linejoin="round" d="M102.439,85.303
			l-0.858,0.162v-0.699h-0.021c-0.246,0.471-0.745,0.699-1.504,0.699c-0.56,0-1.015-0.186-1.358-0.563
			c-0.347-0.377-0.522-0.848-0.522-1.414c0-0.541,0.206-0.98,0.618-1.32c0.389-0.316,0.854-0.473,1.398-0.473
			c0.55,0,0.977,0.166,1.28,0.503v-0.399c0-0.342-0.105-0.574-0.321-0.69c-0.158-0.088-0.449-0.13-0.879-0.13
			c-0.598,0-1.09,0.1-1.479,0.295l0.261-0.994c0.668-0.131,1.128-0.201,1.381-0.201c0.686,0,1.195,0.148,1.52,0.443
			c0.319,0.299,0.484,0.787,0.484,1.459V85.303z M100.306,82.543c-0.316,0-0.583,0.074-0.794,0.223
			c-0.251,0.176-0.369,0.417-0.369,0.723c0,0.714,0.361,1.076,1.093,1.076c0.826,0,1.237-0.362,1.237-1.076
			c0-0.301-0.115-0.537-0.356-0.713C100.903,82.62,100.632,82.543,100.306,82.543z"/>
		<path fill="#FFFFFF" stroke="#FFFFFF" stroke-width="2.8346" stroke-linecap="round" stroke-linejoin="round" d="M106.254,83.102
			v-4.713l0.965-0.163v2.644c0.444-0.527,1.032-0.791,1.753-0.791c0.708,0,1.311,0.262,1.82,0.773c0.5,0.521,0.753,1.15,0.753,1.892
			c0,0.798-0.266,1.456-0.791,1.962c-0.529,0.504-1.192,0.76-1.983,0.76c-0.671,0-1.251-0.221-1.743-0.672
			C106.511,84.33,106.254,83.77,106.254,83.102z M107.113,82.771c0,0.492,0.171,0.914,0.512,1.27
			c0.342,0.348,0.756,0.523,1.251,0.523c0.479,0,0.887-0.176,1.213-0.523c0.329-0.355,0.492-0.777,0.492-1.27
			c0-0.496-0.163-0.914-0.492-1.27c-0.326-0.348-0.733-0.523-1.213-0.523c-0.484,0-0.901,0.176-1.243,0.523
			C107.284,81.857,107.113,82.275,107.113,82.771z"/>
		<path fill="#FFFFFF" stroke="#FFFFFF" stroke-width="2.8346" stroke-linecap="round" stroke-linejoin="round" d="M116.349,85.303
			l-0.858,0.162v-0.699h-0.025c-0.238,0.471-0.735,0.699-1.496,0.699c-0.567,0-1.018-0.186-1.366-0.563
			c-0.344-0.377-0.52-0.848-0.52-1.414c0-0.541,0.208-0.98,0.622-1.32c0.385-0.316,0.854-0.473,1.399-0.473
			c0.542,0,0.972,0.166,1.28,0.503v-0.399c0-0.342-0.109-0.574-0.32-0.69c-0.158-0.088-0.453-0.13-0.88-0.13
			c-0.601,0-1.095,0.1-1.479,0.295l0.262-0.994c0.668-0.131,1.125-0.201,1.376-0.201c0.69,0,1.2,0.148,1.52,0.443
			c0.321,0.299,0.486,0.787,0.486,1.459V85.303z M114.215,82.543c-0.316,0-0.585,0.074-0.796,0.223
			c-0.249,0.176-0.372,0.417-0.372,0.723c0,0.714,0.369,1.076,1.1,1.076c0.824,0,1.238-0.362,1.238-1.076
			c0-0.301-0.12-0.537-0.361-0.713C114.814,82.62,114.544,82.543,114.215,82.543z"/>
		<path fill="#FFFFFF" stroke="#FFFFFF" stroke-width="2.8346" stroke-linecap="round" stroke-linejoin="round" d="M114.268,87.072
			l-0.5-0.588l0.5-0.59l0.487,0.59L114.268,87.072z"/>
		<path fill="#FFFFFF" stroke="#FFFFFF" stroke-width="2.8346" stroke-linecap="round" stroke-linejoin="round" d="M118.353,85.303
			l-0.964,0.162V80.24l0.964-0.162v0.754h0.023c0.281-0.5,0.78-0.754,1.501-0.754c0.573,0,1.03,0.134,1.387,0.402
			c0.406,0.312,0.61,0.766,0.61,1.359v3.463l-0.967,0.162v-3.541c0-0.668-0.369-0.998-1.118-0.998c-0.414,0-0.751,0.119-1.004,0.365
			c-0.286,0.281-0.433,0.672-0.433,1.193V85.303z"/>
	</g>
	<g>
		<path fill="#00918C" d="M6.662,85.303L5.68,85.426v-6.989l0.982-0.158v3.003h3.388v-2.845l0.978-0.158v7.024l-0.978,0.123v-3.245
			H6.662V85.303z"/>
		<path fill="#00918C" d="M16.191,85.303l-0.856,0.162v-0.699h-0.018c-0.243,0.471-0.743,0.699-1.506,0.699
			c-0.558,0-1.008-0.186-1.359-0.563c-0.349-0.377-0.524-0.848-0.524-1.414c0-0.541,0.207-0.98,0.625-1.32
			c0.385-0.316,0.852-0.473,1.396-0.473s0.975,0.166,1.28,0.503v-0.399c0-0.342-0.11-0.574-0.321-0.69
			c-0.158-0.088-0.452-0.13-0.879-0.13c-0.598,0-1.092,0.1-1.477,0.295l0.262-0.994c0.668-0.131,1.127-0.201,1.381-0.201
			c0.686,0,1.192,0.148,1.516,0.443c0.322,0.299,0.48,0.787,0.48,1.459V85.303z M14.063,82.543c-0.321,0-0.588,0.074-0.799,0.223
			c-0.246,0.176-0.369,0.417-0.369,0.723c0,0.714,0.366,1.076,1.1,1.076c0.824,0,1.235-0.362,1.235-1.076
			c0-0.301-0.12-0.537-0.358-0.713C14.655,82.62,14.389,82.543,14.063,82.543z"/>
		<path fill="#00918C" d="M15.137,78.24h0.515c-0.099,0.77-0.437,1.156-1.002,1.156c-0.135,0-0.352-0.057-0.655-0.187
			c-0.299-0.123-0.51-0.179-0.64-0.179c-0.204,0-0.327,0.144-0.369,0.436h-0.521c0.018-0.287,0.121-0.549,0.297-0.784
			c0.178-0.259,0.404-0.387,0.657-0.387c0.187,0,0.417,0.06,0.698,0.183c0.279,0.134,0.482,0.197,0.613,0.197
			C14.941,78.676,15.077,78.531,15.137,78.24z"/>
		<path fill="#00918C" d="M18.52,84.178l-1.977-3.938l0.844-0.162l1.598,3.119l1.479-3.119l0.842,0.162l-3.217,6.711l-0.859-0.242
			L18.52,84.178z"/>
		<path fill="#00918C" d="M25.433,85.303l-0.964,0.162V80.24l0.964-0.162v0.754h0.021c0.281-0.5,0.78-0.754,1.504-0.754
			c0.567,0,1.031,0.134,1.383,0.402c0.41,0.312,0.611,0.766,0.611,1.359v3.463l-0.963,0.162v-3.541c0-0.668-0.376-0.998-1.125-0.998
			c-0.411,0-0.75,0.119-1.002,0.365c-0.288,0.281-0.429,0.672-0.429,1.193V85.303z"/>
		<path fill="#00918C" d="M32.552,80.078c0.763,0,1.413,0.262,1.954,0.781c0.537,0.518,0.806,1.16,0.806,1.912
			s-0.269,1.393-0.806,1.912c-0.541,0.521-1.191,0.781-1.954,0.781c-0.753,0-1.399-0.26-1.941-0.781
			c-0.542-0.52-0.812-1.16-0.812-1.912s0.27-1.395,0.812-1.912C31.152,80.34,31.799,80.078,32.552,80.078z M34.352,82.771
			c0-0.496-0.176-0.914-0.524-1.27c-0.352-0.348-0.773-0.523-1.275-0.523c-0.5,0-0.922,0.176-1.271,0.523
			c-0.34,0.355-0.516,0.773-0.516,1.27c0,0.492,0.176,0.914,0.516,1.27c0.349,0.348,0.771,0.523,1.271,0.523
			c0.502,0,0.924-0.176,1.275-0.523C34.176,83.686,34.352,83.264,34.352,82.771z"/>
		<path fill="#00918C" d="M32.137,79.467l0.899-1.435H34.4l-1.444,1.435H32.137z"/>
		<path fill="#00918C" d="M36.103,78.911l0.622-0.759l0.639,0.759l-0.621,0.749L36.103,78.911z M37.223,85.303l-0.967,0.162V80.24
			l0.967-0.162V85.303z"/>
		<path fill="#00918C" d="M43.779,80.236v0.844h-1.341v2.693c0,0.32,0.063,0.541,0.186,0.664c0.131,0.117,0.364,0.18,0.711,0.18
			c0.002,0,0.216-0.018,0.638-0.063l-0.168,0.867c-0.257,0.025-0.513,0.043-0.773,0.043c-0.447,0-0.816-0.148-1.115-0.436
			c-0.299-0.293-0.444-0.664-0.444-1.119v-2.83h-0.796l0.344-0.844h0.452v-1.24l0.967-0.236v1.477H43.779z"/>
		<path fill="#00918C" d="M45.457,85.303l-0.962,0.162v-7.076l0.962-0.163v2.496h0.063c0.12-0.204,0.321-0.362,0.598-0.475
			c0.261-0.112,0.553-0.169,0.869-0.169c0.563,0,1.026,0.134,1.381,0.402c0.404,0.301,0.615,0.73,0.615,1.303v3.52l-0.967,0.162
			v-3.541c0-0.668-0.374-0.998-1.128-0.998c-0.411,0-0.745,0.119-0.999,0.365c-0.286,0.281-0.432,0.672-0.432,1.193V85.303z"/>
		<path fill="#00918C" d="M54.686,81.471l-3.563,2.271c0.336,0.545,0.804,0.822,1.391,0.822c0.508,0,1.133-0.295,1.881-0.883
			l0.193,1.01c-0.735,0.518-1.408,0.773-2.014,0.773c-0.809,0-1.459-0.268-1.951-0.799c-0.497-0.537-0.743-1.215-0.743-2.035
			c0-0.686,0.254-1.283,0.756-1.793c0.505-0.503,1.095-0.76,1.775-0.76c0.522,0,0.967,0.121,1.333,0.362
			C54.085,80.651,54.396,81,54.686,81.471z M50.843,82.916l2.521-1.607c-0.193-0.218-0.489-0.33-0.884-0.33
			c-0.492,0-0.892,0.162-1.195,0.488c-0.302,0.327-0.457,0.731-0.457,1.206C50.828,82.754,50.833,82.831,50.843,82.916z"/>
		<path fill="#00918C" d="M58.146,80.078c0.759,0,1.416,0.262,1.954,0.781c0.537,0.518,0.813,1.16,0.813,1.912
			s-0.276,1.393-0.813,1.912c-0.538,0.521-1.195,0.781-1.954,0.781c-0.756,0-1.396-0.26-1.943-0.781
			c-0.54-0.52-0.813-1.16-0.813-1.912s0.273-1.395,0.813-1.912C56.749,80.34,57.39,80.078,58.146,80.078z M59.941,82.771
			c0-0.496-0.169-0.914-0.522-1.27c-0.35-0.348-0.773-0.523-1.273-0.523c-0.497,0-0.922,0.176-1.266,0.523
			c-0.349,0.355-0.52,0.773-0.52,1.27c0,0.492,0.171,0.914,0.52,1.27c0.344,0.348,0.769,0.523,1.266,0.523
			c0.5,0,0.924-0.176,1.273-0.523C59.772,83.686,59.941,83.264,59.941,82.771z"/>
		<path fill="#00918C" d="M68.753,80.792l-0.585,0.657c-0.417-0.316-0.844-0.471-1.278-0.471c-0.469,0-0.861,0.18-1.172,0.541
			c-0.303,0.359-0.457,0.781-0.457,1.259c0,0.462,0.165,0.876,0.499,1.241c0.334,0.363,0.721,0.545,1.149,0.545
			c0.422,0,0.837-0.199,1.252-0.598l0.622,0.633c-0.563,0.576-1.195,0.865-1.905,0.865c-0.679,0-1.279-0.26-1.799-0.781
			c-0.521-0.512-0.781-1.135-0.781-1.873c0-0.764,0.242-1.403,0.729-1.934c0.487-0.535,1.103-0.799,1.852-0.799
			C67.577,80.078,68.203,80.317,68.753,80.792z"/>
		<path fill="#00918C" d="M73.499,85.303l-0.855,0.162v-0.699h-0.021c-0.242,0.471-0.74,0.699-1.504,0.699
			c-0.563,0-1.012-0.186-1.361-0.563c-0.348-0.377-0.517-0.848-0.517-1.414c0-0.541,0.204-0.98,0.62-1.32
			c0.383-0.316,0.85-0.473,1.395-0.473c0.549,0,0.975,0.166,1.279,0.503v-0.399c0-0.342-0.105-0.574-0.318-0.69
			c-0.162-0.088-0.455-0.13-0.883-0.13c-0.594,0-1.09,0.1-1.473,0.295l0.256-0.994c0.668-0.131,1.133-0.201,1.385-0.201
			c0.686,0,1.191,0.148,1.512,0.443c0.328,0.299,0.486,0.787,0.486,1.459V85.303z M71.368,82.543c-0.32,0-0.588,0.074-0.795,0.223
			c-0.25,0.176-0.373,0.417-0.373,0.723c0,0.714,0.365,1.076,1.098,1.076c0.826,0,1.236-0.362,1.236-1.076
			c0-0.301-0.119-0.537-0.357-0.713C71.962,82.62,71.694,82.543,71.368,82.543z"/>
		<path fill="#00918C" d="M70.53,79.467l0.896-1.435h1.361l-1.438,1.435H70.53z"/>
		<path fill="#00918C" d="M78.765,80.792l-0.58,0.657c-0.418-0.316-0.847-0.471-1.283-0.471c-0.471,0-0.861,0.18-1.168,0.541
			c-0.305,0.359-0.459,0.781-0.459,1.259c0,0.462,0.164,0.876,0.502,1.241c0.33,0.363,0.717,0.545,1.15,0.545
			c0.418,0,0.833-0.199,1.248-0.598l0.622,0.633c-0.56,0.576-1.2,0.865-1.903,0.865c-0.682,0-1.285-0.26-1.803-0.781
			c-0.52-0.512-0.781-1.135-0.781-1.873c0-0.764,0.244-1.403,0.732-1.934c0.484-0.535,1.104-0.799,1.852-0.799
			C77.595,80.078,78.217,80.317,78.765,80.792z"/>
		<path fill="#00918C" d="M80.515,85.303l-0.967,0.162v-7.076l0.967-0.163v2.496h0.061c0.12-0.204,0.324-0.362,0.605-0.475
			c0.26-0.112,0.547-0.169,0.857-0.169c0.573,0,1.03,0.134,1.389,0.402c0.404,0.301,0.608,0.73,0.608,1.303v3.52l-0.967,0.162
			v-3.541c0-0.668-0.374-0.998-1.122-0.998c-0.414,0-0.748,0.119-0.998,0.365c-0.293,0.281-0.434,0.672-0.434,1.193V85.303z"/>
		<path fill="#00918C" d="M92.124,80.792l-0.583,0.657c-0.422-0.316-0.849-0.471-1.28-0.471c-0.475,0-0.857,0.18-1.17,0.541
			c-0.307,0.359-0.461,0.781-0.461,1.259c0,0.462,0.164,0.876,0.503,1.241c0.329,0.363,0.716,0.545,1.15,0.545
			c0.417,0,0.831-0.199,1.248-0.598l0.62,0.633c-0.563,0.576-1.195,0.865-1.9,0.865c-0.679,0-1.283-0.26-1.809-0.781
			c-0.516-0.512-0.775-1.135-0.775-1.873c0-0.764,0.242-1.403,0.73-1.934c0.484-0.535,1.107-0.799,1.854-0.799
			C90.951,80.078,91.576,80.317,92.124,80.792z"/>
		<path fill="#00918C" d="M96.428,80.24l0.962-0.162v5.225l-0.962,0.162v-0.746H96.41c-0.299,0.492-0.809,0.746-1.519,0.746
			c-0.563,0-1.022-0.133-1.374-0.404c-0.412-0.299-0.61-0.73-0.61-1.298V80.24l0.965-0.162v3.544c0,0.661,0.371,0.995,1.122,0.995
			c0.417,0,0.748-0.127,1.005-0.373c0.288-0.271,0.429-0.668,0.429-1.18V80.24z"/>
		<path fill="#00918C" d="M95.991,78.848c-0.186,0.123-0.281,0.229-0.281,0.31v0.183l-0.588,0.127v-0.468
			c0-0.144,0.053-0.257,0.153-0.352c0.101-0.07,0.198-0.134,0.302-0.211c0.133-0.095,0.2-0.196,0.2-0.319
			c0-0.088-0.035-0.162-0.105-0.229c-0.07-0.057-0.158-0.092-0.256-0.092c-0.136,0-0.241,0.031-0.313,0.092
			c-0.078,0.063-0.176,0.186-0.292,0.39l-0.55-0.241c0.276-0.525,0.646-0.785,1.105-0.785c0.283,0,0.534,0.084,0.74,0.26
			c0.206,0.169,0.312,0.385,0.312,0.641C96.418,78.43,96.277,78.662,95.991,78.848z"/>
		<path fill="#00918C" d="M102.439,85.303l-0.858,0.162v-0.699h-0.021c-0.246,0.471-0.745,0.699-1.504,0.699
			c-0.56,0-1.015-0.186-1.358-0.563c-0.347-0.377-0.522-0.848-0.522-1.414c0-0.541,0.206-0.98,0.618-1.32
			c0.389-0.316,0.854-0.473,1.398-0.473c0.55,0,0.977,0.166,1.28,0.503v-0.399c0-0.342-0.105-0.574-0.321-0.69
			c-0.158-0.088-0.449-0.13-0.879-0.13c-0.598,0-1.09,0.1-1.479,0.295l0.261-0.994c0.668-0.131,1.128-0.201,1.381-0.201
			c0.686,0,1.195,0.148,1.52,0.443c0.319,0.299,0.484,0.787,0.484,1.459V85.303z M100.306,82.543c-0.316,0-0.583,0.074-0.794,0.223
			c-0.251,0.176-0.369,0.417-0.369,0.723c0,0.714,0.361,1.076,1.093,1.076c0.826,0,1.237-0.362,1.237-1.076
			c0-0.301-0.115-0.537-0.356-0.713C100.903,82.62,100.632,82.543,100.306,82.543z"/>
		<path fill="#00918C" d="M106.254,83.102v-4.713l0.965-0.163v2.644c0.444-0.527,1.032-0.791,1.753-0.791
			c0.708,0,1.311,0.262,1.82,0.773c0.5,0.521,0.753,1.15,0.753,1.892c0,0.798-0.266,1.456-0.791,1.962
			c-0.529,0.504-1.192,0.76-1.983,0.76c-0.671,0-1.251-0.221-1.743-0.672C106.511,84.33,106.254,83.77,106.254,83.102z
			 M107.113,82.771c0,0.492,0.171,0.914,0.512,1.27c0.342,0.348,0.756,0.523,1.251,0.523c0.479,0,0.887-0.176,1.213-0.523
			c0.329-0.355,0.492-0.777,0.492-1.27c0-0.496-0.163-0.914-0.492-1.27c-0.326-0.348-0.733-0.523-1.213-0.523
			c-0.484,0-0.901,0.176-1.243,0.523C107.284,81.857,107.113,82.275,107.113,82.771z"/>
		<path fill="#00918C" d="M116.349,85.303l-0.858,0.162v-0.699h-0.025c-0.238,0.471-0.735,0.699-1.496,0.699
			c-0.567,0-1.018-0.186-1.366-0.563c-0.344-0.377-0.52-0.848-0.52-1.414c0-0.541,0.208-0.98,0.622-1.32
			c0.385-0.316,0.854-0.473,1.399-0.473c0.542,0,0.972,0.166,1.28,0.503v-0.399c0-0.342-0.109-0.574-0.32-0.69
			c-0.158-0.088-0.453-0.13-0.88-0.13c-0.601,0-1.095,0.1-1.479,0.295l0.262-0.994c0.668-0.131,1.125-0.201,1.376-0.201
			c0.69,0,1.2,0.148,1.52,0.443c0.321,0.299,0.486,0.787,0.486,1.459V85.303z M114.215,82.543c-0.316,0-0.585,0.074-0.796,0.223
			c-0.249,0.176-0.372,0.417-0.372,0.723c0,0.714,0.369,1.076,1.1,1.076c0.824,0,1.238-0.362,1.238-1.076
			c0-0.301-0.12-0.537-0.361-0.713C114.814,82.62,114.544,82.543,114.215,82.543z"/>
		<path fill="#00918C" d="M114.268,87.072l-0.5-0.588l0.5-0.59l0.487,0.59L114.268,87.072z"/>
		<path fill="#00918C" d="M118.353,85.303l-0.964,0.162V80.24l0.964-0.162v0.754h0.023c0.281-0.5,0.78-0.754,1.501-0.754
			c0.573,0,1.03,0.134,1.387,0.402c0.406,0.312,0.61,0.766,0.61,1.359v3.463l-0.967,0.162v-3.541c0-0.668-0.369-0.998-1.118-0.998
			c-0.414,0-0.751,0.119-1.004,0.365c-0.286,0.281-0.433,0.672-0.433,1.193V85.303z"/>
	</g>
	<g>
		<path fill="#00918C" d="M121.874,26.471C110.207,12.277,88.693,2.765,64.079,2.765c-24.609,0-46.122,9.513-57.791,23.706H51.9
			c7.066-8.071,20.089-13.493,34.989-13.493C101.784,12.978,114.808,18.399,121.874,26.471z"/>
		<path fill="#D58431" d="M6.2,47.126c11.673,14.187,33.185,23.706,57.795,23.706c24.604,0,46.119-9.52,57.796-23.706H76.173
			C69.11,55.198,56.084,60.612,41.19,60.612C26.289,60.612,13.264,55.198,6.2,47.126z"/>
		<path fill="#00918C" d="M28.111,32.937H23.34c-1.207,0-2.402,0.419-2.93,1.195c-0.527,0.773-3.656,5.344-3.656,5.344
			s-3.307-4.756-3.716-5.344c-0.407-0.588-1.874-1.195-3.575-1.195c-1.698,0-3.783,0-3.783,0s6.304,7.514,6.638,7.91
			s1.974,1.186,4.276,1.186s3.816-0.412,4.454-1.186c0.633-0.766,4.116-5,4.116-5s0,4.435,0,5c0,0.566,0.975,1.186,2.947,1.186
			c1.969,0,3.29-0.602,3.29-1.186v-6.715C31.401,33.517,30.249,32.937,28.111,32.937z M113.459,39.778
			c-1.208,0-1.906-0.411-1.906-1.541c0-1.125,0-4.105,0-4.105c0-0.625-1.178-1.195-3.134-1.195c-1.951,0-3.106,0.091-3.106,1.195
			s0,5.828,0,5.828s-9.224,0-10.273,0c-1.055,0-1.504-0.133-1.504-0.967c0-0.836,0-0.836,0-0.836s6.539,0,7.669,0
			c1.125,0,2.069,0.053,2.069-0.893s0-0.945,0-0.945s-7.185,0-8.234,0c-1.055,0-1.504-0.141-1.504-0.784c0-0.647,0-0.647,0-0.647
			s7.212,0,8.267,0s2.22-0.344,2.22-0.756c0-0.414,0-1.195,0-1.195s-10.667,0-23.63,0c-0.892,0-0.892-0.9-0.892-0.9v-0.199
			c0-0.553-1.101-1.183-2.911-1.183c-1.797,0-3.334,0.454-3.334,1.183v0.241l-0.02-0.042c0,0,0,0.9-0.895,0.9h-7.478
			c-0.89,0-0.89-0.9-0.89-0.9l-0.027,0.042v-0.241c0-0.553-1.1-1.183-2.904-1.183c-1.804,0-3.341,0.454-3.341,1.183v0.199
			c0,0,0,0.9-0.889,0.9H34.738c-1.129,0-1.72,0.39-1.72,1.195c0,0.59,0,6.715,0,6.715c0,0.584,0.741,1.186,2.546,1.186h12.323
			c0.951,0,2.164-0.584,2.164-1.211c0-0.621,0-0.861,0-0.861s-8.492,0-9.349,0s-1.444-0.199-1.444-1.002c0-0.801,0-0.801,0-0.801
			s6.73,0,7.629,0c0.907,0,2.109,0.018,2.109-0.91s0-0.928,0-0.928s-7.39,0-8.246,0s-1.492-0.061-1.492-0.598
			c0-0.532,0-0.532,0-0.532s13.973,0,15.55,0c1.579,0,2.893,0.492,2.893,2.075v3.582c0,0.553,1.472,1.186,3.2,1.186
			c1.729,0,3.045-0.608,3.045-1.186v-3.582c0-0.903,0.791-2.075,2.521-2.075h4.285c1.424,0,2.502,0.647,2.502,1.998v3.659
			c0,0.553,1.105,1.186,2.912,1.186c1.804,0,3.333-0.457,3.333-1.186v-3.659c0-0.901,1.173-1.998,2.228-1.998h3.234
			c1.125,0,2.332,0.726,2.332,2.075v3.582c0,0.553,0.521,1.186,1.877,1.186h29.624c1.356,0,2.458-0.531,2.458-1.186
			c0-0.646,0-1.068,0-1.068S114.659,39.778,113.459,39.778z"/>
	</g>
</g>
</svg>
