<svg width="154" height="17" viewBox="0 0 154 17" fill="none" xmlns="http://www.w3.org/2000/svg">
<path d="M2.37402 16H0.311523L6.83203 0.638672H9.03418L15.5869 16H13.3848L11.3975 11.166H6.31641L6.86426 9.55469H10.7314L7.86328 2.59375L2.37402 16ZM16.5 16V14.3887C22.1934 10.4714 25.04 7.35612 25.04 5.04297C25.04 3.10938 23.8226 2.14258 21.3877 2.14258C19.8122 2.14258 18.3262 2.53646 16.9297 3.32422V1.60547C18.3262 0.889323 19.8122 0.53125 21.3877 0.53125C25.1475 0.53125 27.0273 2.03516 27.0273 5.04297C27.0273 7.69271 24.4671 10.8079 19.3467 14.3887H27.0273V16H16.5ZM29.9922 16V0.638672H36.2227C39.3594 0.638672 40.9277 2.01009 40.9277 4.75293C40.9277 7.73926 38.7829 9.56185 34.4932 10.2207L34.085 8.54492C37.236 8.07943 38.8115 6.84408 38.8115 4.83887C38.8115 3.13444 37.8877 2.28223 36.04 2.28223H31.9795V16H29.9922Z" fill="white"/>
<path d="M60.543 15.3984C59.304 15.8711 57.9684 16.1074 56.5361 16.1074C50.9717 16.1074 48.1895 13.4398 48.1895 8.10449C48.1895 3.05566 50.875 0.53125 56.2461 0.53125C57.7858 0.53125 59.2181 0.746094 60.543 1.17578V2.89453C59.2181 2.39323 57.8574 2.14258 56.4609 2.14258C52.2715 2.14258 50.1768 4.12988 50.1768 8.10449C50.1768 12.3656 52.2393 14.4961 56.3643 14.4961C57.0231 14.4961 57.7536 14.4102 58.5557 14.2383V9.01758H60.543V15.3984ZM64.335 16H62.2725L68.793 0.638672H70.9951L77.5479 16H75.3457L73.3584 11.166H68.2773L68.8252 9.55469H72.6924L69.8242 2.59375L64.335 16ZM90.0088 0.638672V2.25H85.1748V16H83.1875V2.25H78.3535V0.638672H90.0088ZM102.427 0.638672V2.25H94.3701V7.40625H102.051V9.01758H94.3701V14.3887H102.588V16H92.3828V0.638672H102.427ZM104.307 0.638672H106.229L108.389 14.002L112.729 0.638672H114.716L119.367 14.002L121.806 0.638672H123.643L120.753 16H118.046L113.706 3.13086L109.506 16H106.831L104.307 0.638672ZM126.511 16H124.448L130.969 0.638672H133.171L139.724 16H137.521L135.534 11.166H130.453L131.001 9.55469H134.868L132 2.59375L126.511 16ZM140.261 0.638672H142.463L146.889 8.66309L151.379 0.638672H153.688L147.823 10.6289V16H145.836V10.6289L140.261 0.638672Z" fill="#E7505A"/>
</svg>
