<svg width="159" height="17" viewBox="0 0 159 17" fill="none" xmlns="http://www.w3.org/2000/svg">
<path d="M0.700195 15.4629V13.6367C2.31152 14.2096 4.05176 14.4961 5.9209 14.4961C8.56348 14.4961 9.88477 13.5293 9.88477 11.5957C9.88477 9.94857 8.91081 9.125 6.96289 9.125H4.98633C1.77083 9.125 0.163086 7.72852 0.163086 4.93555C0.163086 1.99935 2.22201 0.53125 6.33984 0.53125C8.13021 0.53125 9.79525 0.746094 11.335 1.17578V3.00195C9.79525 2.42904 8.13021 2.14258 6.33984 2.14258C3.54688 2.14258 2.15039 3.07357 2.15039 4.93555C2.15039 6.58268 3.0957 7.40625 4.98633 7.40625H6.96289C10.2357 7.40625 11.8721 8.80273 11.8721 11.5957C11.8721 14.6035 9.88835 16.1074 5.9209 16.1074C4.05176 16.1074 2.31152 15.8926 0.700195 15.4629ZM14.7725 16V0.638672H17.2969L22.9365 13.4541L28.4688 0.638672H30.8857V16H29.1133V3.39941L23.6562 16H22.0879L16.5449 3.39941V16H14.7725ZM34.3232 15.4629V13.6367C35.9346 14.2096 37.6748 14.4961 39.5439 14.4961C42.1865 14.4961 43.5078 13.5293 43.5078 11.5957C43.5078 9.94857 42.5339 9.125 40.5859 9.125H38.6094C35.3939 9.125 33.7861 7.72852 33.7861 4.93555C33.7861 1.99935 35.8451 0.53125 39.9629 0.53125C41.7533 0.53125 43.4183 0.746094 44.958 1.17578V3.00195C43.4183 2.42904 41.7533 2.14258 39.9629 2.14258C37.1699 2.14258 35.7734 3.07357 35.7734 4.93555C35.7734 6.58268 36.7188 7.40625 38.6094 7.40625H40.5859C43.8587 7.40625 45.4951 8.80273 45.4951 11.5957C45.4951 14.6035 43.5114 16.1074 39.5439 16.1074C37.6748 16.1074 35.9346 15.8926 34.3232 15.4629Z" fill="white"/>
<path d="M63.8105 0.638672V2.25H55.7539V7.40625H63.4346V9.01758H55.7539V16H53.7666V0.638672H63.8105ZM68.4941 0.638672V16H66.5068V0.638672H68.4941ZM72.4795 16V0.638672H79.0322C81.9541 0.638672 83.415 1.86686 83.415 4.32324C83.415 6.32129 81.9863 7.80013 79.1289 8.75977L84.4033 16H81.7822L76.8945 9.09277V7.79297C79.8307 7.32747 81.2988 6.19954 81.2988 4.40918C81.2988 2.99121 80.4824 2.28223 78.8496 2.28223H74.4668V16H72.4795ZM96.5527 0.638672V2.25H88.4961V7.40625H96.1768V9.01758H88.4961V14.3887H96.7139V16H86.5088V0.638672H96.5527ZM98.4326 0.638672H100.355L102.515 14.002L106.854 0.638672H108.842L113.493 14.002L115.932 0.638672H117.769L114.879 16H112.172L107.832 3.13086L103.632 16H100.957L98.4326 0.638672ZM120.637 16H118.574L125.095 0.638672H127.297L133.85 16H131.647L129.66 11.166H124.579L125.127 9.55469H128.994L126.126 2.59375L120.637 16ZM137.932 0.638672V14.3887H145.967V16H135.944V0.638672H137.932ZM150.328 0.638672V14.3887H158.363V16H148.341V0.638672H150.328Z" fill="#E7505A"/>
</svg>
